<svg width="32" height="32" viewBox="0 0 32 32" fill="none" xmlns="http://www.w3.org/2000/svg">
<path d="M31.9971 13.2711C31.9911 13.0489 31.9734 12.8267 31.9378 12.6074L30.3615 12.2607L30.8119 11.7422L31.44 11.0193C31.3363 10.8119 31.2208 10.6104 31.0934 10.4207C29.6623 8.27852 26.7941 7.31259 24.3082 8.14815C23.7719 8.32889 23.203 8.61037 22.64 8.96889C21.8489 9.46963 21.0637 10.1215 20.3823 10.8563C20.3734 10.8652 20.3645 10.8741 20.3556 10.8859C20.4652 10.6726 20.5689 10.4563 20.6697 10.237C21.286 8.85333 21.6474 7.36296 21.6474 6.14518C21.6474 4.66667 21.1171 3.24148 20.246 2.13037C19.5497 1.24148 18.6311 0.554074 17.5882 0.201481C17.5467 0.186667 17.5052 0.171852 17.4608 0.16C17.2474 0.0948148 17.0311 0.0414815 16.8089 0.00592593L16 1.44593L15.7778 1.04889L15.1971 0.00592593L15.1941 0C12.4593 0.456296 10.3556 3.19407 10.3556 6.13926C10.3556 7.11407 10.5867 8.26074 10.9926 9.38667C11.1734 9.88444 11.3867 10.3793 11.6297 10.8504C11.6356 10.8593 11.6386 10.8681 11.6445 10.88C11.4934 10.7141 11.3363 10.5541 11.1734 10.4C10.0889 9.35111 8.82078 8.52741 7.69189 8.14518C6.563 7.76592 5.35707 7.75704 4.243 8.06222H4.24003C2.963 8.41185 1.80448 9.17037 1.01929 10.2519C0.983737 10.3022 0.945219 10.3556 0.909663 10.4089C0.779293 10.6015 0.663737 10.803 0.557071 11.0163L1.63559 12.2578L0.248922 12.5659L0.242997 12.5689L0.0592928 12.6074C0.0533669 12.6519 0.047441 12.6993 0.0415151 12.7437C0.0385521 12.7615 0.0385521 12.7763 0.0355891 12.7941C0.0355891 12.803 0.0326262 12.8119 0.0326262 12.8207C0.0118854 12.9956 0.00299654 13.1704 3.35741e-05 13.3452C3.35741e-05 13.3659 3.35741e-05 13.3867 3.35741e-05 13.4044C-0.00885532 15.9704 1.74818 18.4474 4.20152 19.2711C4.81485 19.4785 5.53781 19.603 6.30522 19.6444C7.11707 19.6889 7.97929 19.6385 8.81781 19.4904C8.86226 19.4815 8.9067 19.4756 8.95115 19.4667C8.12744 19.8785 7.34226 20.397 6.6667 20.9689C6.6667 20.9689 6.6667 20.9689 6.66374 20.9689C6.083 21.4607 5.58522 21.9881 5.21485 22.5156C4.50966 23.52 4.1304 24.72 4.07114 25.9259C4.07114 25.9289 4.07114 25.9318 4.07114 25.9348C4.0504 26.3704 4.07114 26.8059 4.13337 27.2326C4.13929 27.2681 4.14522 27.3007 4.15114 27.3363C4.15707 27.3689 4.163 27.3985 4.16892 27.4311C4.17485 27.4607 4.18077 27.4933 4.1867 27.523C4.1867 27.5289 4.18966 27.5319 4.18966 27.5378C4.19559 27.5644 4.20151 27.5911 4.20448 27.6148C4.21929 27.68 4.23411 27.7481 4.24892 27.8133C4.25485 27.837 4.26077 27.8637 4.2667 27.8874C4.26966 27.8963 4.27263 27.9081 4.27263 27.917C4.27855 27.9378 4.28448 27.9585 4.2904 27.9793C4.29337 27.9941 4.29633 28.0059 4.30226 28.0207C4.30818 28.0444 4.31411 28.0652 4.32003 28.0889C4.32892 28.1215 4.33781 28.1541 4.34966 28.1867C4.36152 28.2252 4.37337 28.2607 4.38522 28.2993C4.38522 28.3022 4.38818 28.3052 4.38818 28.3081C4.40003 28.3407 4.40892 28.3733 4.42077 28.4059C4.42374 28.4148 4.4267 28.4207 4.42966 28.4296C4.44151 28.4622 4.45337 28.4978 4.46522 28.5304C4.47114 28.5481 4.48003 28.5689 4.48596 28.5867C4.49189 28.6044 4.50077 28.6252 4.5067 28.643C4.5067 28.643 4.5067 28.6459 4.50966 28.6489C4.68744 29.0963 4.91855 29.517 5.20003 29.9052C5.33633 30.0918 5.48448 30.2696 5.64448 30.4356L7.11707 29.757L7.04596 30.4504L6.94818 31.4193C7.12892 31.5141 7.31263 31.597 7.49929 31.6652C9.88448 32.5718 12.7971 31.6089 14.3467 29.3985C14.9126 28.5896 15.3867 27.4874 15.6978 26.2933C15.8134 25.8519 15.9052 25.3985 15.9704 24.9393C15.9793 24.8859 15.9852 24.8296 15.9941 24.7763C16.1274 25.7837 16.3882 26.7881 16.7408 27.677C16.7408 27.68 16.7437 27.683 16.7437 27.6859C17.0015 28.3319 17.3037 28.9156 17.6415 29.3985C18.0949 30.0444 18.6637 30.5837 19.3008 31.0015C20.1363 31.5467 21.0874 31.8844 22.0534 31.9793C22.0978 31.9822 22.1423 31.9881 22.1867 31.9911C22.2163 31.9941 22.243 31.9941 22.2726 31.997C22.3319 32 22.3882 32.003 22.4474 32.0059C22.4771 32.0059 22.5067 32.0089 22.5363 32.0089C22.566 32.0089 22.5956 32.0089 22.6252 32.0089C22.643 32.0089 22.6637 32.0089 22.6815 32.0089C22.8148 32.0059 22.9482 32 23.0815 31.9881H23.0845C23.1082 31.9852 23.1348 31.9822 23.1586 31.9822C23.1911 31.9793 23.2267 31.9763 23.2593 31.9704C23.2948 31.9674 23.3304 31.9615 23.366 31.9556C23.9467 31.8756 24.5126 31.7007 25.043 31.4222L24.8741 29.76L25.2889 29.9526L26.3467 30.4415C26.4593 30.323 26.566 30.2015 26.6637 30.077C26.6667 30.0741 26.6667 30.0741 26.6667 30.0711C26.6726 30.0622 26.6786 30.0533 26.6874 30.0444C28.3111 27.9733 28.3437 24.7615 26.7763 22.5244C26.4771 22.0978 26.0949 21.6711 25.6534 21.2652C24.9245 20.5926 24.0326 19.9733 23.0904 19.4963C23.0756 19.4874 23.0578 19.4815 23.043 19.4726C23.3334 19.5259 23.6237 19.5704 23.9171 19.6C23.92 19.6 23.926 19.6 23.9289 19.6C25.3245 19.7481 26.723 19.6356 27.7926 19.2741C29.7956 18.5985 31.3363 16.8237 31.8282 14.797C31.8311 14.7881 31.8341 14.7793 31.8341 14.7674C31.9378 14.3378 31.9911 13.8933 31.9941 13.4489C32 13.3896 32 13.3304 31.9971 13.2711Z" fill="#FFBBD7"/>
<path d="M20.371 17.2118C21.3725 16.874 22.0629 15.7925 21.9059 14.7436L21.3221 14.6162L21.7221 14.1569C21.254 13.2118 20.0836 12.7555 19.0821 13.0932C18.6021 13.2562 18.054 13.6355 17.6184 14.1066C17.9177 13.5318 18.0955 12.874 18.0955 12.3495C18.0955 11.2592 17.3162 10.2458 16.3029 10.074L16.0007 10.6103L15.7014 10.074C14.6881 10.2429 13.9088 11.2562 13.9088 12.3495C13.9088 12.874 14.0866 13.5318 14.3859 14.1066C13.9503 13.6355 13.4021 13.2562 12.9221 13.0932C11.9207 12.7555 10.7503 13.2118 10.2821 14.1569L10.6821 14.6162L10.0984 14.7436C9.94141 15.7955 10.6318 16.874 11.6333 17.2118C12.1133 17.3747 12.774 17.4014 13.3933 17.2829C12.8273 17.5673 12.3088 17.988 12.0096 18.4118C11.3903 19.2947 11.4466 20.5895 12.1696 21.3421L12.7147 21.0903L12.6525 21.7066C13.5681 22.1866 14.774 21.8399 15.3933 20.9569C15.6896 20.5332 15.9177 19.8932 16.0036 19.2443C16.0896 19.8903 16.3177 20.5332 16.614 20.9569C17.2333 21.8399 18.4392 22.1866 19.3547 21.7066L19.2925 21.0903L19.8377 21.3421C20.5607 20.5866 20.617 19.2947 19.9977 18.4118C19.7014 17.988 19.1829 17.5643 18.614 17.2829C19.2303 17.4014 19.891 17.3747 20.371 17.2118Z" fill="url(#paint0_radial_5268_2)"/>
<path d="M14.5 22.6281L15.9993 16.6755L15.0304 22.7437L14.5 22.6281Z" fill="#FF1515"/>
<path d="M13.3398 22.1748L16.0006 16.6755L13.8347 22.4029L13.3398 22.1748Z" fill="#FF1515"/>
<path d="M12.2969 21.4815L16.0006 16.6755L12.7324 21.8104L12.2969 21.4815Z" fill="#FF1515"/>
<path d="M11.4102 20.5778L15.9998 16.6755L11.7746 20.9955L11.4102 20.5778Z" fill="#FF1515"/>
<path d="M10.7285 19.5052L15.9996 16.6755L10.9981 19.9911L10.7285 19.5052Z" fill="#FF1515"/>
<path d="M10.2754 18.3081L15.9998 16.6755L10.4443 18.8415L10.2754 18.3081Z" fill="#FF1515"/>
<path d="M10.0742 17.04L16.0001 16.6755L10.1305 17.597L10.0742 17.04Z" fill="#FF1515"/>
<path d="M10.1305 15.7539L16.0001 16.6754L10.0742 16.3109L10.1305 15.7539Z" fill="#FF1515"/>
<path d="M10.4443 14.5095L15.9998 16.6754L10.2754 15.0429L10.4443 14.5095Z" fill="#FF1515"/>
<path d="M10.9981 13.3599L15.9996 16.6754L10.7285 13.8458L10.9981 13.3599Z" fill="#FF1515"/>
<path d="M11.7746 12.3555L15.9998 16.6755L11.4102 12.7732L11.7746 12.3555Z" fill="#FF1515"/>
<path d="M12.7324 11.5405L16.0006 16.6753L12.2969 11.8694L12.7324 11.5405Z" fill="#FF1515"/>
<path d="M13.8347 10.948L16.0006 16.6754L13.3398 11.1761L13.8347 10.948Z" fill="#FF1515"/>
<path d="M15.0304 10.6074L15.9993 16.6756L14.5 10.723L15.0304 10.6074Z" fill="#FF1515"/>
<path d="M16.2697 10.5303L16.0001 16.6755L15.7305 10.5303H16.2697Z" fill="#FF1515"/>
<path d="M17.4963 10.723L16 16.6756L16.9689 10.6074L17.4963 10.723Z" fill="#FF1515"/>
<path d="M18.6578 11.1761L16 16.6754L18.1659 10.948L18.6578 11.1761Z" fill="#FF1515"/>
<path d="M19.7037 11.8694L16 16.6753L19.2652 11.5405L19.7037 11.8694Z" fill="#FF1515"/>
<path d="M20.5867 12.7732L16 16.6755L20.2252 12.3555L20.5867 12.7732Z" fill="#FF1515"/>
<path d="M21.2711 13.8458L16 16.6754L21.0015 13.3599L21.2711 13.8458Z" fill="#FF1515"/>
<path d="M21.7244 15.0429L16 16.6754L21.5556 14.5095L21.7244 15.0429Z" fill="#FF1515"/>
<path d="M21.9259 16.3109L16 16.6754L21.8696 15.7539L21.9259 16.3109Z" fill="#FF1515"/>
<path d="M21.8696 17.597L16 16.6755L21.9259 17.04L21.8696 17.597Z" fill="#FF1515"/>
<path d="M21.5556 18.8415L16 16.6755L21.7244 18.3081L21.5556 18.8415Z" fill="#FF1515"/>
<path d="M21.0015 19.9911L16 16.6755L21.2711 19.5052L21.0015 19.9911Z" fill="#FF1515"/>
<path d="M20.2252 20.9955L16 16.6755L20.5867 20.5778L20.2252 20.9955Z" fill="#FF1515"/>
<path d="M19.2652 21.8104L16 16.6755L19.7037 21.4815L19.2652 21.8104Z" fill="#FF1515"/>
<path d="M18.1659 22.4029L16 16.6755L18.6578 22.1748L18.1659 22.4029Z" fill="#FF1515"/>
<path d="M16.9689 22.7437L16 16.6755L17.4963 22.6281L16.9689 22.7437Z" fill="#FF1515"/>
<path d="M15.7305 22.8207L16.0001 16.6755L16.2697 22.8207H15.7305Z" fill="#FF1515"/>
<defs>
<radialGradient id="paint0_radial_5268_2" cx="0" cy="0" r="1" gradientUnits="userSpaceOnUse" gradientTransform="translate(16.0004 15.9999) scale(5.92593)">
<stop stop-color="#D4145A"/>
<stop offset="0.1803" stop-color="#DE3B78"/>
<stop offset="0.4565" stop-color="#EC72A0"/>
<stop offset="0.6952" stop-color="#F69ABE"/>
<stop offset="0.8842" stop-color="#FDB2D0"/>
<stop offset="1" stop-color="#FFBBD7"/>
</radialGradient>
</defs>
</svg>
